<svg width="16" height="16" viewBox="0 0 16 16" fill="none" xmlns="http://www.w3.org/2000/svg">
<path d="M8 16C3.57442 16 0 12.4256 0 8C0 3.57443 3.57442 0 8 0C12.4256 0 16 3.57443 16 8C16 12.4256 12.4256 16 8 16ZM8 0.681037C3.94908 0.681037 0.681037 3.94908 0.681037 8C0.681037 12.0509 3.94908 15.319 8 15.319C12.0509 15.319 15.319 12.0509 15.319 8C15.319 3.94908 12.0509 0.681037 8 0.681037Z" fill="#D9D9D9"/>
<path d="M5.20864 4.42564C5.10651 4.42564 4.97031 4.3576 4.93634 4.25547C4.83422 4.0853 4.8683 3.88104 5.03847 3.77892L5.20864 4.05122L5.03847 3.74484L5.07255 3.71076C5.24272 3.60863 5.44697 3.64271 5.5491 3.81288C5.65123 3.98305 5.61715 4.18731 5.44697 4.28943L5.37893 4.32351C5.34485 4.42564 5.2768 4.42564 5.20864 4.42564H5.20864Z" fill="#D9D9D9"/>
<path d="M5.277 4.39147C5.17487 4.39147 5.03867 4.32343 5.0047 4.2213C4.90258 4.05113 4.93666 3.84687 5.10683 3.74475C7.14924 2.45107 9.39614 1.56601 11.745 1.12343C11.9152 1.08934 12.1195 1.22555 12.1536 1.39572C12.1876 1.5659 12.0514 1.77015 11.8813 1.80423C9.60039 2.21273 7.45568 3.06383 5.44729 4.32331C5.37924 4.3575 5.31108 4.39147 5.27712 4.39147L5.277 4.39147Z" fill="#D9D9D9"/>
<path d="M0.47635 8.57852C0.408305 8.57852 0.306179 8.54444 0.272098 8.51048C0.13589 8.37427 0.101926 8.17002 0.238016 8.03393C1.19124 6.91053 2.7571 5.27651 5.03796 3.84674C5.20813 3.74462 5.41238 3.7787 5.51451 3.94887C5.61664 4.11904 5.58256 4.32329 5.41238 4.42542C3.19968 5.75306 1.66784 7.35295 0.748707 8.44249C0.680662 8.51054 0.578535 8.57858 0.476409 8.57858L0.47635 8.57852Z" fill="#D9D9D9"/>
<path d="M8.74891 11.8807H8.57874C8.37449 11.8807 8.23828 11.7105 8.23828 11.5403C8.23828 11.3701 8.40845 11.1998 8.57874 11.1998H8.71495C11.3362 11.1998 13.5829 10.6551 14.9788 10.1785C15.149 10.1105 15.3532 10.2126 15.4214 10.3828C15.4894 10.553 15.3873 10.7572 15.2171 10.8254C13.7871 11.302 11.4723 11.8807 8.74903 11.8807H8.74891Z" fill="#D9D9D9"/>
<path d="M8.61307 11.8809H8.40882C8.20457 11.8809 8.06836 11.7107 8.06836 11.5404C8.06836 11.3362 8.23853 11.2 8.40882 11.2H8.61307C8.81733 11.2 8.95353 11.3701 8.95353 11.5404C8.95353 11.7447 8.78325 11.8809 8.61307 11.8809Z" fill="#D9D9D9"/>
<path d="M8.40866 11.8809C5.65125 11.8128 2.99596 11.2001 0.544929 10.0085C0.374757 9.94047 0.306595 9.73621 0.374757 9.56592C0.442802 9.39575 0.647055 9.32759 0.817344 9.39575C3.20033 10.5532 5.71941 11.166 8.40884 11.1999C8.61309 11.1999 8.7493 11.3701 8.7493 11.5404C8.74918 11.7447 8.5789 11.8809 8.40872 11.8809H8.40866Z" fill="#D9D9D9"/>
<path d="M13.3787 7.62557C13.3106 7.62557 13.2085 7.59149 13.1744 7.55753C13.0382 7.42132 13.0043 7.21706 13.1404 7.08097C13.719 6.40017 14.2297 5.68529 14.7063 4.90224C14.8085 4.73207 15.0127 4.69799 15.1829 4.80011C15.3531 4.90224 15.3871 5.10649 15.285 5.27666C14.7744 6.05959 14.2297 6.80856 13.651 7.52344C13.5829 7.59149 13.4808 7.62557 13.3787 7.62557Z" fill="#D9D9D9"/>
<path d="M8.40874 11.8809C8.30661 11.8809 8.1704 11.8128 8.10236 11.7107C8.00023 11.5405 8.03431 11.3363 8.20448 11.2681H8.23857L8.34069 11.2001C8.51086 11.0979 8.71512 11.166 8.81724 11.3022C8.91937 11.4724 8.85132 11.6766 8.71512 11.7787L8.61299 11.8468C8.54494 11.8468 8.47678 11.8809 8.40874 11.8809Z" fill="#D9D9D9"/>
<path d="M3.02954 13.9914C2.85937 13.9914 2.72316 13.8893 2.68908 13.7191C2.655 13.549 2.75713 13.3447 2.96138 13.3106C4.83374 12.9021 6.63793 12.1872 8.23781 11.234C8.40799 11.1319 8.61224 11.1999 8.71437 11.3702C8.81649 11.5404 8.74845 11.7447 8.57816 11.8468C6.91005 12.834 5.07172 13.5489 3.09747 13.9914H3.02954H3.02954Z" fill="#D9D9D9"/>
<path d="M8.54501 11.7788C8.44289 11.7788 8.30668 11.7107 8.23863 11.6086C8.13651 11.4384 8.20455 11.2342 8.34076 11.1321C10.111 10.0767 11.7109 8.68102 13.1066 7.047C13.2428 6.91079 13.447 6.87683 13.5831 7.01292C13.7193 7.14913 13.7533 7.35338 13.6172 7.48947C12.1874 9.19154 10.5534 10.6212 8.68099 11.7446C8.68099 11.7787 8.61294 11.7787 8.54489 11.7787L8.54501 11.7788Z" fill="#D9D9D9"/>
<path d="M2.85962 14.0255C2.68945 14.0255 2.55324 13.9234 2.51916 13.7532C2.48508 13.5831 2.5872 13.3788 2.79146 13.3447L2.96163 13.3107C3.1318 13.2766 3.33605 13.3787 3.37014 13.583C3.40422 13.7531 3.30209 13.9574 3.09784 13.9915H3.02979C2.99571 13.9915 2.96175 13.9915 2.92767 14.0255H2.85962Z" fill="#D9D9D9"/>
<path d="M5.27662 4.39132C5.10645 4.39132 4.97024 4.28919 4.93616 4.11902C4.73191 3.1658 4.62978 2.14454 4.5957 1.15735C4.5957 0.953102 4.73191 0.816895 4.93616 0.816895C5.14042 0.816895 5.27662 0.953102 5.27662 1.15735C5.31071 2.11057 5.41283 3.09776 5.61708 4.01689C5.65117 4.18707 5.54904 4.39132 5.34479 4.4254C5.31059 4.39132 5.27663 4.39132 5.27663 4.39132H5.27662Z" fill="#D9D9D9"/>
<path d="M8.61261 11.8807C8.51048 11.8807 8.40835 11.8466 8.34031 11.7445L8.27226 11.6424C8.17014 11.5062 8.20422 11.2679 8.34031 11.1658C8.47652 11.0637 8.71473 11.0978 8.81686 11.2339L8.8849 11.336C8.98703 11.4722 8.95295 11.7104 8.81686 11.8125C8.74881 11.8466 8.68065 11.8807 8.61261 11.8807V11.8807Z" fill="#D9D9D9"/>
<path d="M11.4726 15.0468C11.4045 15.0468 11.3024 15.0127 11.2342 14.9446C10.5194 14.2978 9.43005 13.2085 8.34062 11.7107C8.2385 11.5745 8.27258 11.3363 8.40867 11.2342C8.54488 11.1321 8.78309 11.1661 8.88522 11.3022C9.94056 12.732 10.9958 13.7873 11.7107 14.434C11.8469 14.5702 11.8469 14.7745 11.7448 14.9106C11.6427 15.0127 11.5747 15.0468 11.4726 15.0468H11.4726Z" fill="#D9D9D9"/>
<path d="M8.54448 11.7786C8.44236 11.7786 8.34023 11.7445 8.27218 11.6424C6.60408 9.32755 5.48069 6.80829 4.93615 4.15301C4.90207 3.98284 5.0042 3.77858 5.20845 3.7445C5.37862 3.71042 5.58287 3.81255 5.61696 4.0168C6.12759 6.56996 7.2169 9.021 8.85086 11.2336C8.95299 11.3698 8.91891 11.6081 8.78282 11.7102C8.68058 11.7785 8.61253 11.7785 8.54448 11.7785V11.7786Z" fill="#D9D9D9"/>
<path d="M5.27661 4.42548C5.10644 4.42548 4.97023 4.32335 4.93615 4.15318L5.27661 4.05105L4.93615 4.08514C4.90207 3.91496 5.0042 3.71071 5.20845 3.67663C5.37862 3.64255 5.58287 3.74468 5.61696 3.94893V3.98301C5.65104 4.15318 5.54891 4.35743 5.34466 4.39151C5.31058 4.42548 5.27661 4.42548 5.27661 4.42548V4.42548Z" fill="#D9D9D9"/>
<path d="M5.20821 4.42557H5.17413C3.74436 4.22131 2.51884 4.18723 1.73597 4.18723C1.5658 4.18723 1.39551 4.05103 1.39551 3.84677C1.39551 3.64252 1.53172 3.50631 1.73597 3.50631C2.5189 3.47223 3.7785 3.50631 5.27625 3.74465C5.44643 3.77873 5.58263 3.9489 5.54855 4.11907C5.51458 4.32344 5.37849 4.42557 5.20821 4.42557Z" fill="#D9D9D9"/>
<path d="M13.3783 7.62574C13.3103 7.62574 13.2421 7.59165 13.1741 7.55769C10.8252 5.92367 8.16989 4.86832 5.20822 4.42591C5.03805 4.39183 4.90184 4.22166 4.93593 4.05149C4.97001 3.88131 5.14018 3.74511 5.31035 3.77919C8.37414 4.25574 11.1316 5.34516 13.5826 7.01309C13.7528 7.11522 13.7868 7.31947 13.6506 7.48964C13.5826 7.55758 13.4805 7.62574 13.3783 7.62574V7.62574Z" fill="#D9D9D9"/>
<path d="M15.5237 9.36179C15.4556 9.36179 15.3535 9.32771 15.2853 9.25966C14.6385 8.6469 13.9236 8.06823 13.2087 7.55759C13.0386 7.45547 13.0045 7.25121 13.1407 7.08104C13.2428 6.91087 13.4471 6.87679 13.6172 7.013C14.3662 7.52363 15.115 8.13639 15.796 8.78323C15.9322 8.91943 15.9322 9.12369 15.796 9.25978C15.694 9.32771 15.5918 9.36179 15.5237 9.36179V9.36179Z" fill="#D9D9D9"/>
<path d="M5.27693 4.42555H5.20889H5.1748L5.24296 3.74463L5.20888 4.08509L5.27693 3.74463H5.31101C5.48118 3.77871 5.61739 3.94888 5.58331 4.11905C5.58331 4.32342 5.4471 4.42555 5.27693 4.42555H5.27693Z" fill="#D9D9D9"/>
</svg>
