<?xml version="1.0" encoding="UTF-8"?>
<svg width="100%" height="100%" version="1.1" viewBox="80 40 550 480" xmlns="http://www.w3.org/2000/svg" xmlns:xlink="http://www.w3.org/1999/xlink">
 <g>
  <path d="m165.59 33.602c-2.9141 0.042969-5.6953 1.2188-7.7539 3.2812l-50.949 50.949h-0.003906c-4.3711 4.375-4.3711 11.465 0 15.84l176.37 176.3-176.37 176.37c-4.3711 4.3711-4.3711 11.461 0 15.836l50.949 50.949h0.003906c4.3711 4.375 11.465 4.375 15.84 0l176.3-176.37 176.37 176.37h-0.003907c4.375 4.3711 11.465 4.3711 15.836 0l50.949-50.949h0.003906c4.3711-4.375 4.3711-11.465 0-15.836l-176.37-176.37 176.37-176.3c4.3711-4.375 4.3711-11.465 0-15.84l-50.949-50.949h-0.003906c-4.3711-4.3711-11.461-4.3711-15.836 0l-176.37 176.37-176.3-176.37h0.003906c-2.1406-2.1406-5.0586-3.3242-8.0859-3.2812z" fill-rule="evenodd"/>
  <use x="70" y="644" xlink:href="#v"/>
  <use x="90.550781" y="644" xlink:href="#d"/>
  <use x="104.359375" y="644" xlink:href="#b"/>
  <use x="123.347656" y="644" xlink:href="#a"/>
  <use x="142.242188" y="644" xlink:href="#c"/>
  <use x="155.628906" y="644" xlink:href="#b"/>
  <use x="174.617188" y="644" xlink:href="#l"/>
  <use x="204.410156" y="644" xlink:href="#k"/>
  <use x="224.453125" y="644" xlink:href="#f"/>
  <use x="252.453125" y="644" xlink:href="#a"/>
  <use x="271.34375" y="644" xlink:href="#j"/>
  <use x="280.945312" y="644" xlink:href="#u"/>
  <use x="299.195312" y="644" xlink:href="#i"/>
  <use x="308.792969" y="644" xlink:href="#a"/>
  <use x="327.6875" y="644" xlink:href="#h"/>
  <use x="347.621094" y="644" xlink:href="#t"/>
  <use x="373.488281" y="644" xlink:href="#i"/>
  <use x="383.085938" y="644" xlink:href="#g"/>
  <use x="392.683594" y="644" xlink:href="#a"/>
  <use x="411.578125" y="644" xlink:href="#f"/>
  <use x="429.828125" y="644" xlink:href="#a"/>
  <use x="70" y="672" xlink:href="#s"/>
  <use x="82.183594" y="672" xlink:href="#d"/>
  <use x="95.992188" y="672" xlink:href="#e"/>
  <use x="115.226562" y="672" xlink:href="#r"/>
  <use x="154.152344" y="672" xlink:href="#c"/>
  <use x="167.535156" y="672" xlink:href="#q"/>
  <use x="187.46875" y="672" xlink:href="#b"/>
  <use x="216.207031" y="672" xlink:href="#p"/>
  <use x="239.640625" y="672" xlink:href="#e"/>
  <use x="258.878906" y="672" xlink:href="#o"/>
  <use x="278.8125" y="672" xlink:href="#h"/>
  <use x="308.492188" y="672" xlink:href="#n"/>
  <use x="329.015625" y="672" xlink:href="#d"/>
  <use x="342.820312" y="672" xlink:href="#e"/>
  <use x="362.058594" y="672" xlink:href="#g"/>
  <use x="371.65625" y="672" xlink:href="#b"/>
  <use x="390.648438" y="672" xlink:href="#m"/>
  <use x="407.242188" y="672" xlink:href="#c"/>
 </g>
</svg>
