<?xml version="1.0" encoding="UTF-8"?>
<svg width="100%" height="100%" version="1.1" viewBox="135 65 430 435" preserveAspectRatio="none" xmlns="http://www.w3.org/2000/svg" xmlns:xlink="http://www.w3.org/1999/xlink">
 
 <g>
  <path stroke-width="1" d="m497 490h-84c-5.5703 0-10.91-2.2109-14.848-6.1523-3.9414-3.9375-6.1523-9.2773-6.1523-14.848v-126h-84v126c0 5.5703-2.2109 10.91-6.1523 14.848-3.9375 3.9414-9.2773 6.1523-14.848 6.1523h-84c-16.703-0.019531-32.715-6.6641-44.527-18.473-11.809-11.812-18.453-27.824-18.473-44.527v-169.4c-0.085938-25.941 11.902-50.445 32.43-66.305l138.88-108.02c11.059-8.6094 24.668-13.281 38.68-13.281s27.625 4.6719 38.68 13.281l138.88 108.03v-0.003907c20.535 15.855 32.531 40.355 32.453 66.301v169.4c-0.019531 16.703-6.6641 32.715-18.473 44.527-11.812 11.809-27.824 18.453-44.527 18.473zm-63-42h63c5.5664-0.007812 10.906-2.2188 14.844-6.1562s6.1484-9.2773 6.1562-14.844v-169.4c0.042969-12.973-5.9492-25.223-16.211-33.152l-138.91-108.02c-3.6836-2.8711-8.2227-4.4297-12.895-4.4297s-9.2109 1.5586-12.898 4.4297l-138.85 108.02c-10.273 7.9219-16.273 20.176-16.238 33.152v169.4c0.007812 5.5664 2.2188 10.906 6.1562 14.844s9.2773 6.1484 14.844 6.1562h63v-105c0.011719-11.137 4.4414-21.809 12.316-29.684s18.547-12.305 29.684-12.316h84c11.137 0.011719 21.809 4.4414 29.684 12.316s12.305 18.547 12.316 29.684z"/>
  <use x="70" y="644" xlink:href="#w"/>
  <use x="90.550781" y="644" xlink:href="#d"/>
  <use x="104.359375" y="644" xlink:href="#b"/>
  <use x="123.347656" y="644" xlink:href="#h"/>
  <use x="142.242188" y="644" xlink:href="#c"/>
  <use x="155.628906" y="644" xlink:href="#b"/>
  <use x="174.617188" y="644" xlink:href="#g"/>
  <use x="204.410156" y="644" xlink:href="#f"/>
  <use x="224.453125" y="644" xlink:href="#a"/>
  <use x="252.453125" y="644" xlink:href="#m"/>
  <use x="275.882812" y="644" xlink:href="#l"/>
  <use x="285.484375" y="644" xlink:href="#v"/>
  <use x="295.078125" y="644" xlink:href="#k"/>
  <use x="324.257812" y="644" xlink:href="#a"/>
  <use x="352.257812" y="644" xlink:href="#j"/>
  <use x="373.925781" y="644" xlink:href="#f"/>
  <use x="393.96875" y="644" xlink:href="#l"/>
  <use x="403.566406" y="644" xlink:href="#a"/>
  <use x="421.820312" y="644" xlink:href="#a"/>
  <use x="440.070312" y="644" xlink:href="#i"/>
  <use x="469.75" y="644" xlink:href="#j"/>
  <use x="491.421875" y="644" xlink:href="#u"/>
  <use x="508.085937" y="644" xlink:href="#h"/>
  <use x="526.984375" y="644" xlink:href="#g"/>
  <use x="70" y="672" xlink:href="#t"/>
  <use x="82.183594" y="672" xlink:href="#d"/>
  <use x="95.992188" y="672" xlink:href="#e"/>
  <use x="115.226562" y="672" xlink:href="#k"/>
  <use x="154.152344" y="672" xlink:href="#c"/>
  <use x="167.535156" y="672" xlink:href="#s"/>
  <use x="187.46875" y="672" xlink:href="#b"/>
  <use x="216.207031" y="672" xlink:href="#r"/>
  <use x="239.640625" y="672" xlink:href="#e"/>
  <use x="258.878906" y="672" xlink:href="#i"/>
  <use x="278.8125" y="672" xlink:href="#q"/>
  <use x="308.492188" y="672" xlink:href="#p"/>
  <use x="329.015625" y="672" xlink:href="#d"/>
  <use x="342.820312" y="672" xlink:href="#e"/>
  <use x="362.058594" y="672" xlink:href="#o"/>
  <use x="371.65625" y="672" xlink:href="#b"/>
  <use x="390.648438" y="672" xlink:href="#n"/>
  <use x="407.242188" y="672" xlink:href="#c"/>
 </g>
</svg>
