<?xml version="1.0" encoding="UTF-8"?>
<svg width="700pt" height="700pt" version="1.1" viewBox="0 0 700 700" xmlns="http://www.w3.org/2000/svg" xmlns:xlink="http://www.w3.org/1999/xlink">
 <g>
  <path d="m598.64 318.64c-9.5195 0-17.359 7.8398-17.359 17.359v140h-463.12v-140c0-9.5195-7.8398-17.359-17.359-17.359s-17.359 7.8398-17.359 17.359v157.36c0 9.5195 7.8398 17.359 17.359 17.359h497.84c9.5195 0 17.359-7.8398 17.359-17.359v-157.36c0-10.078-7.8398-17.359-17.359-17.359z"/>
  <path d="m259.28 182 72.801-72.801v259.84c0 9.5195 7.8398 17.359 17.359 17.359 9.5195 0 17.359-7.8398 17.359-17.359v-260.96l73.922 73.922c6.7188 6.7188 17.359 6.7188 24.078 0s6.7188-17.359 0-24.078l-102.48-102.48c-3.3594-3.3594-7.8398-5.0391-12.32-5.0391s-8.9609 1.6797-12.32 5.0391l-102.48 102.48c-6.7188 6.7188-6.7188 17.359 0 24.078 6.7227 6.7188 17.359 6.7188 24.082 0z"/>
  <use x="70" y="644" xlink:href="#h"/>
  <use x="90.546875" y="644" xlink:href="#c"/>
  <use x="104.359375" y="644" xlink:href="#a"/>
  <use x="123.347656" y="644" xlink:href="#l"/>
  <use x="142.242188" y="644" xlink:href="#b"/>
  <use x="155.625" y="644" xlink:href="#a"/>
  <use x="174.617188" y="644" xlink:href="#e"/>
  <use x="204.40625" y="644" xlink:href="#k"/>
  <use x="224.453125" y="644" xlink:href="#j"/>
  <use x="252.453125" y="644" xlink:href="#i"/>
  <use x="274.121094" y="644" xlink:href="#e"/>
  <use x="294.164062" y="644" xlink:href="#c"/>
  <use x="307.972656" y="644" xlink:href="#u"/>
  <use x="317.570312" y="644" xlink:href="#a"/>
  <use x="336.5625" y="644" xlink:href="#g"/>
  <use x="366.242188" y="644" xlink:href="#h"/>
  <use x="386.789062" y="644" xlink:href="#d"/>
  <use x="406.027344" y="644" xlink:href="#t"/>
  <use x="426.070312" y="644" xlink:href="#f"/>
  <use x="446.003906" y="644" xlink:href="#a"/>
  <use x="464.992188" y="644" xlink:href="#b"/>
  <use x="70" y="672" xlink:href="#s"/>
  <use x="82.179688" y="672" xlink:href="#c"/>
  <use x="95.992188" y="672" xlink:href="#d"/>
  <use x="115.226562" y="672" xlink:href="#r"/>
  <use x="154.148438" y="672" xlink:href="#b"/>
  <use x="167.535156" y="672" xlink:href="#q"/>
  <use x="187.46875" y="672" xlink:href="#a"/>
  <use x="216.207031" y="672" xlink:href="#p"/>
  <use x="239.640625" y="672" xlink:href="#d"/>
  <use x="258.875" y="672" xlink:href="#f"/>
  <use x="278.8125" y="672" xlink:href="#g"/>
  <use x="308.492188" y="672" xlink:href="#o"/>
  <use x="329.015625" y="672" xlink:href="#c"/>
  <use x="342.820312" y="672" xlink:href="#d"/>
  <use x="362.058594" y="672" xlink:href="#n"/>
  <use x="371.65625" y="672" xlink:href="#a"/>
  <use x="390.648438" y="672" xlink:href="#m"/>
  <use x="407.242188" y="672" xlink:href="#b"/>
 </g>
</svg>
