<?xml version="1.0" encoding="UTF-8"?>
<svg width="100%" height="100%" version="1.1" viewBox="0 -40 600 600" xmlns="http://www.w3.org/2000/svg">
 <path d="m432.37 267.63-122.5-122.5c-4.4453-4.293-10.824-5.9258-16.785-4.293-5.957 1.6367-10.613 6.293-12.25 12.25-1.6328 5.9609 0 12.34 4.293 16.785l110.12 110.13-110.13 110.13h0.003906c-3.3789 3.2578-5.3008 7.7422-5.3438 12.434-0.039062 4.6953 1.8047 9.207 5.125 12.527 3.3203 3.3203 7.832 5.1641 12.527 5.125 4.6914-0.042969 9.1758-1.9648 12.434-5.3438l122.5-122.5c3.2812-3.2812 5.125-7.7305 5.125-12.371s-1.8438-9.0898-5.125-12.371z"/>
</svg>
