<?xml version="1.0" encoding="UTF-8"?>
<svg width="100%" height="100%" version="1.1" viewBox="135 20 430 515" preserveAspectRatio="none" xmlns="http://www.w3.org/2000/svg">
 <g>
  <path d="m286.31 370.18c18.176 0.015625 35.617-7.1875 48.48-20.027 12.863-12.84 20.102-30.266 20.117-48.441 0.015625-18.18-7.1875-35.617-20.027-48.48-12.844-12.867-30.27-20.102-48.445-20.117-18.176-0.019531-35.613 7.1875-48.477 20.027-12.867 12.84-20.102 30.266-20.121 48.441 0.015625 18.168 7.2305 35.59 20.066 48.445 12.832 12.859 30.238 20.105 48.406 20.152zm0-111.75c11.473-0.015625 22.477 4.5273 30.598 12.629 8.1172 8.1016 12.68 19.102 12.688 30.57 0.003906 11.473-4.5508 22.473-12.66 30.582-8.1094 8.1133-19.113 12.668-30.582 12.66-11.473-0.003906-22.469-4.5703-30.57-12.688-8.1055-8.1211-12.648-19.125-12.633-30.598 0.023437-11.438 4.5781-22.402 12.668-30.492 8.0859-8.0898 19.055-12.645 30.492-12.664z"/>
  <path d="m551.73 424.89-10.445-47.012h0.003906c-2.1641-9.9531-7.6758-18.859-15.621-25.23-7.9414-6.3711-17.832-9.8203-28.016-9.7734h-46.223l-0.20312-0.039062h-46.32c-10.191-0.050782-20.094 3.4062-28.043 9.7891-7.9531 6.3828-13.465 15.305-15.621 25.27l-5.1914 22.906h0.003906c-1.1797-0.10547-2.3633-0.14844-3.543-0.125h-66.195l-0.12891 0.027343h-66.027c-13.297-0.066406-26.215 4.4375-36.59 12.762-10.371 8.3203-17.57 19.953-20.395 32.949l-14.898 67.07c-0.73047 3.2773-0.125 6.707 1.6758 9.5391 1.8008 2.832 4.6562 4.832 7.9336 5.5586 0.90234 0.20312 1.8281 0.30469 2.7539 0.30469 5.9297-0.007813 11.059-4.1289 12.344-9.9141l14.898-67.07c1.6016-7.3594 5.6797-13.949 11.555-18.66 5.875-4.7109 13.191-7.2656 20.723-7.2266h66.199l0.12891-0.027343h66.023c7.9414-0.050782 15.629 2.7852 21.641 7.9727 5.4609 4.6289 9.207 10.957 10.633 17.973l14.934 67.078c1.3281 5.7812 6.4727 9.8789 12.402 9.875 0.89062-0.023437 1.7812-0.10938 2.6562-0.25391 6.8438-1.5508 11.145-8.3398 9.6211-15.188l-14.809-67.078v-0.003906c-3.6172-16.453-14.188-30.535-28.984-38.602l5.3164-24.426c0.95703-4.3164 3.3633-8.1758 6.8164-10.941 3.4531-2.7617 7.7461-4.2578 12.168-4.2461h46.141l0.20312 0.039062h46.402c4.4141-0.019531 8.7031 1.4766 12.152 4.2383 3.4453 2.7617 5.8359 6.625 6.7734 10.941l10.445 47.012c1.5156 6.8203 8.2773 11.125 15.098 9.6094 3.2773-0.73047 6.1289-2.7266 7.9336-5.5586 1.8008-2.832 2.4062-6.2656 1.6758-9.5391z"/>
  <path d="m312 134.77c13.754 0.019531 26.949-5.4297 36.684-15.148 9.7305-9.7188 15.203-22.902 15.211-36.656 0.003906-13.754-5.457-26.945-15.18-36.668-9.7266-9.7266-22.918-15.188-36.672-15.184-13.754 0.007813-26.938 5.4805-36.656 15.211-9.7148 9.7344-15.168 22.93-15.148 36.684 0.042968 13.715 5.5117 26.855 15.211 36.551 9.6953 9.6992 22.836 15.168 36.551 15.211zm0-78.344v0.003906c7.0352-0.019531 13.785 2.7578 18.77 7.7188 4.9844 4.9609 7.793 11.699 7.8086 18.73 0.019531 7.0312-2.7578 13.785-7.7188 18.77-4.9609 4.9844-11.699 7.793-18.73 7.8086-7.0312 0.019531-13.785-2.7578-18.77-7.7188s-7.793-11.699-7.8086-18.73c-0.003907-7.0273 2.7812-13.77 7.7383-18.75 4.957-4.9805 11.684-7.7969 18.711-7.8281z"/>
  <path d="m231.61 198.73c3.2773 0.73047 6.707 0.12891 9.5391-1.6758 2.832-1.8008 4.832-4.6562 5.5586-7.9336 0.9375-4.3164 3.332-8.1797 6.7773-10.941 3.4453-2.7617 7.7344-4.2578 12.152-4.2383h92.793-0.003907c4.418-0.019531 8.707 1.4766 12.152 4.2383 3.4453 2.7617 5.8398 6.625 6.7773 10.941l10.512 47.301 13.578 55c0.023438 0.097657 0.089844 0.17188 0.11719 0.26562h-0.003906c0.13672 0.61328 0.32422 1.2109 0.55859 1.7891 4.7539 14.348 15.539 25.906 29.527 31.641 13.988 5.7305 29.781 5.0703 43.242-1.8164 13.457-6.8867 23.234-19.305 26.77-34.004s0.47266-30.207-8.3828-42.457c-8.8555-12.254-22.621-20.023-37.688-21.277-15.062-1.2539-29.926 4.1367-40.684 14.758l-0.003906 0.007812-2.3906-9.6797-10.445-47.012v-0.003906c-2.1602-9.9531-7.6758-18.859-15.617-25.23-7.9453-6.375-17.836-9.8242-28.02-9.7734h-92.789c-10.184-0.050781-20.078 3.3984-28.02 9.7734-7.9453 6.3711-13.457 15.277-15.617 25.23-0.73047 3.2773-0.12891 6.707 1.6758 9.5391 1.8008 2.832 4.6562 4.832 7.9336 5.5586zm219.62 51.965c6.5742-0.03125 12.93 2.3867 17.824 6.7773 4.8984 4.3906 7.9844 10.445 8.668 16.984 0.68359 6.543-1.0898 13.102-4.9727 18.41-3.8828 5.3086-9.5977 8.9844-16.039 10.312-6.4414 1.3281-13.145 0.21875-18.812-3.1211-5.668-3.3359-9.8945-8.6602-11.855-14.938l-0.75781-3.0391v0.003906c-0.36328-1.6211-0.53516-3.2773-0.50781-4.9375 0.019531-7.0117 2.8125-13.727 7.7695-18.684s11.672-7.75 18.684-7.7695z"/>
 </g>
</svg>
