<?xml version="1.0" encoding="UTF-8"?>
<svg width="100%" height="100%" version="1.1" viewBox="195 135 305 292" preserveAspectRatio="none" xmlns="http://www.w3.org/2000/svg" xmlns:xlink="http://www.w3.org/1999/xlink">
 
 <g>
  <path d="m316.4 288.4c-3.3594-3.3594-8.3984-3.3594-11.762 0-3.3594 3.3594-3.3594 8.3984 0 11.762l48.16 48.16 48.16-48.16c3.3594-3.3594 3.3594-8.3984 0-11.762-3.3594-3.3594-8.3984-3.3594-11.762 0l-28 28 0.003907-170.24c0-4.4805-3.9219-8.3984-8.3984-8.3984-4.4805 0-8.4023 3.918-8.4023 8.3984v169.68z"/>
  <path d="m467.04 221.76h-78.961c-4.4805 0-8.3984 3.9219-8.3984 8.3984 0 4.4805 3.9219 8.3984 8.3984 8.3984h78.961c8.3984 0 15.121 6.7188 15.121 15.121v137.2c0 8.3984-6.7188 15.121-15.121 15.121h-234.08c-8.3984 0-15.121-6.7188-15.121-15.121v-174.72c0-8.3984 6.7188-15.121 15.121-15.121h36.961c6.1602 0 11.762 3.9219 14 9.5195l2.8008 7.2812c4.4805 12.32 16.801 20.719 29.68 20.719 4.4805 0 8.3984-3.9219 8.3984-8.3984 0-4.4805-3.9219-8.3984-8.3984-8.3984-6.1602 0-11.762-3.9219-14-9.5195l-2.8008-7.2812c-4.4805-12.32-16.801-20.719-29.68-20.719h-36.961c-17.359 0-31.922 14-31.922 31.922v174.16c0 17.359 14 31.922 31.922 31.922h233.52c17.359 0 31.922-14 31.922-31.922l-0.003906-137.2c0-17.359-14-31.359-31.359-31.359z"/>
  <use x="70" y="644" xlink:href="#v"/>
  <use x="90.550781" y="644" xlink:href="#d"/>
  <use x="104.359375" y="644" xlink:href="#a"/>
  <use x="123.347656" y="644" xlink:href="#c"/>
  <use x="142.242188" y="644" xlink:href="#b"/>
  <use x="155.628906" y="644" xlink:href="#a"/>
  <use x="174.617188" y="644" xlink:href="#m"/>
  <use x="204.410156" y="644" xlink:href="#l"/>
  <use x="224.453125" y="644" xlink:href="#k"/>
  <use x="252.453125" y="644" xlink:href="#j"/>
  <use x="271.550781" y="644" xlink:href="#e"/>
  <use x="290.789062" y="644" xlink:href="#i"/>
  <use x="319.960938" y="644" xlink:href="#c"/>
  <use x="338.859375" y="644" xlink:href="#h"/>
  <use x="355.523438" y="644" xlink:href="#u"/>
  <use x="381.570312" y="644" xlink:href="#g"/>
  <use x="402.089844" y="644" xlink:href="#c"/>
  <use x="420.984375" y="644" xlink:href="#h"/>
  <use x="437.648437" y="644" xlink:href="#b"/>
  <use x="451.035156" y="644" xlink:href="#a"/>
  <use x="470.023437" y="644" xlink:href="#d"/>
  <use x="483.835937" y="644" xlink:href="#f"/>
  <use x="503.765625" y="644" xlink:href="#c"/>
  <use x="522.664062" y="644" xlink:href="#t"/>
  <use x="70" y="672" xlink:href="#s"/>
  <use x="82.183594" y="672" xlink:href="#d"/>
  <use x="95.992188" y="672" xlink:href="#e"/>
  <use x="115.226562" y="672" xlink:href="#i"/>
  <use x="154.152344" y="672" xlink:href="#b"/>
  <use x="167.535156" y="672" xlink:href="#r"/>
  <use x="187.46875" y="672" xlink:href="#a"/>
  <use x="216.207031" y="672" xlink:href="#q"/>
  <use x="239.640625" y="672" xlink:href="#e"/>
  <use x="258.878906" y="672" xlink:href="#p"/>
  <use x="278.8125" y="672" xlink:href="#f"/>
  <use x="308.492188" y="672" xlink:href="#g"/>
  <use x="329.015625" y="672" xlink:href="#d"/>
  <use x="342.820312" y="672" xlink:href="#e"/>
  <use x="362.058594" y="672" xlink:href="#o"/>
  <use x="371.65625" y="672" xlink:href="#a"/>
  <use x="390.648438" y="672" xlink:href="#n"/>
  <use x="407.242188" y="672" xlink:href="#b"/>
 </g>
</svg>
