<?xml version="1.0" encoding="UTF-8"?>
<svg width="100%" height="100%" version="1.1" viewBox="0 0 620 700" xmlns="http://www.w3.org/2000/svg">
 <g>
  <path d="m151.97 250.86c-1.6367 4.3984-1.4375 9.2656 0.55078 13.516 1.9844 4.25 5.5938 7.5234 10.016 9.0898 4.4258 1.5625 9.2891 1.2852 13.508-0.76953 4.2148-2.0586 7.4297-5.7188 8.9219-10.168 14.32-40.531 43.062-74.371 80.738-95.07 37.676-20.695 81.652-26.805 123.54-17.152 41.887 9.6484 78.762 34.375 103.59 69.473 24.824 35.094 35.863 78.098 31.012 120.81-4.8477 42.711-25.25 82.145-57.312 110.78-32.066 28.633-73.543 44.465-116.53 44.473-29.656 0.10547-58.836-7.4648-84.699-21.98-5.3711-2.5469-11.664-2.1953-16.719 0.93359-5.0547 3.1289-8.1719 8.6094-8.2852 14.551-0.10938 5.9414 2.8047 11.535 7.7383 14.852 31.113 17.539 66.246 26.723 101.96 26.645 53.883-0.43359 105.54-21.566 144.27-59.023 38.738-37.457 61.594-88.371 63.84-142.21 2.25-53.84-16.285-106.48-51.762-147.04-35.48-40.555-85.191-65.918-138.85-70.848v-47.551h29.168c6.25 0 12.027-3.3359 15.152-8.75 3.1289-5.4141 3.1289-12.086 0-17.5-3.125-5.4141-8.9023-8.75-15.152-8.75h-93.336c-6.25 0-12.027 3.3359-15.152 8.75-3.1289 5.4141-3.1289 12.086 0 17.5 3.125 5.4141 8.9023 8.75 15.152 8.75h29.168v48.043c-40.25 3.2656-78.695 18.09-110.72 42.684-32.027 24.598-56.266 57.918-69.809 95.961z"/>
  <path d="m350 215.83c-4.6406 0-9.0938 1.8438-12.375 5.125-3.2812 3.2852-5.125 7.7344-5.125 12.375v70c-0.003906 3.2539 0.90234 6.4414 2.6133 9.207 1.7109 2.7656 4.1602 5 7.0703 6.4492l46.668 23.332v0.003907c2.4219 1.2188 5.1016 1.8516 7.8164 1.8438 5.2969 0.003906 10.312-2.3906 13.641-6.5117 3.3281-4.125 4.6055-9.5352 3.4805-14.715-1.1289-5.1758-4.543-9.5625-9.2812-11.93l-36.984-18.48v-59.199c0-4.6445-1.8477-9.0977-5.1328-12.383-3.2891-3.2812-7.7461-5.1211-12.391-5.1172z"/>
  <path d="m99.168 303.33c0 4.6445 1.8438 9.0938 5.125 12.375s7.7305 5.125 12.375 5.125h140c6.25 0 12.027-3.3359 15.152-8.75 3.1289-5.4141 3.1289-12.086 0-17.5-3.125-5.4141-8.9023-8.75-15.152-8.75h-140c-4.6445 0-9.0938 1.8438-12.375 5.125-3.2812 3.2852-5.125 7.7344-5.125 12.375z"/>
  <path d="m274.17 373.33c0-4.6406-1.8438-9.0898-5.125-12.375-3.2852-3.2812-7.7344-5.125-12.375-5.125h-116.67c-6.2539 0-12.031 3.3359-15.156 8.75-3.125 5.4141-3.125 12.086 0 17.5 3.125 5.4141 8.9023 8.75 15.156 8.75h116.67c4.6406 0 9.0898-1.8438 12.375-5.125 3.2812-3.2812 5.125-7.7305 5.125-12.375z"/>
  <path d="m186.67 460.83h70c6.25 0 12.027-3.3359 15.152-8.75 3.1289-5.4141 3.1289-12.086 0-17.5-3.125-5.4141-8.9023-8.75-15.152-8.75h-70c-6.2539 0-12.031 3.3359-15.156 8.75-3.125 5.4141-3.125 12.086 0 17.5 3.125 5.4141 8.9023 8.75 15.156 8.75z"/>
 </g>
</svg>
