<?xml version="1.0" encoding="UTF-8"?>
<svg width="100%" height="100%" version="1.1" viewBox="70 30 550 500" xmlns="http://www.w3.org/2000/svg" xmlns:xlink="http://www.w3.org/1999/xlink">
 <g>
  <path d="m334.36 517.34c34.344 0 62.672-27.453 62.672-61.906v-45.828c0-10.281-8.3125-18.594-18.594-18.594s-18.594 8.3125-18.594 18.594v45.828c0 13.891-11.703 24.719-25.484 24.719h-185.61c-13.891 0-25.156-10.828-25.156-24.719v-350.88c0-13.891 11.266-24.719 25.156-24.719h185.61c13.891 0 25.484 10.828 25.484 24.719v53.266c0 10.281 8.3125 18.594 18.594 18.594s18.594-8.3125 18.594-18.594v-53.266c0-34.344-28.328-61.906-62.672-61.906h-185.61c-34.344 0-62.344 27.453-62.344 61.906v350.98c0 34.344 28 61.906 62.344 61.906h185.61z"/>
  <path d="m511.33 183.09c-7.6562-6.8906-19.359-6.3438-26.25 1.3125s-6.3438 19.141 1.3125 26.031l60.266 54.25h-314.45c-10.281 0-18.594 8.3125-18.594 18.594s8.3125 18.594 18.594 18.594h314.56l-60.266 54.688c-7.6562 6.8906-8.2031 18.703-1.3125 26.359 3.7188 4.0469 8.75 6.2344 13.781 6.2344 4.4844 0 8.8594-1.5312 12.469-4.8125l96.141-86.844c3.9375-3.5 6.125-8.5312 6.125-13.781s-2.1875-10.281-6.125-13.781z"/>
  <use x="70" y="576.40625" xlink:href="#s"/>
  <use x="74.011719" y="576.40625" xlink:href="#b"/>
  <use x="76.710938" y="576.40625" xlink:href="#a"/>
  <use x="80.417969" y="576.40625" xlink:href="#d"/>
  <use x="84.109375" y="576.40625" xlink:href="#c"/>
  <use x="86.722656" y="576.40625" xlink:href="#a"/>
  <use x="90.433594" y="576.40625" xlink:href="#j"/>
  <use x="96.25" y="576.40625" xlink:href="#i"/>
  <use x="100.167969" y="576.40625" xlink:href="#h"/>
  <use x="105.636719" y="576.40625" xlink:href="#g"/>
  <use x="109.871094" y="576.40625" xlink:href="#d"/>
  <use x="113.5625" y="576.40625" xlink:href="#b"/>
  <use x="116.261719" y="576.40625" xlink:href="#d"/>
  <use x="119.949219" y="576.40625" xlink:href="#f"/>
  <use x="70" y="581.875" xlink:href="#r"/>
  <use x="72.378906" y="581.875" xlink:href="#b"/>
  <use x="75.078125" y="581.875" xlink:href="#e"/>
  <use x="78.832031" y="581.875" xlink:href="#q"/>
  <use x="86.4375" y="581.875" xlink:href="#c"/>
  <use x="89.050781" y="581.875" xlink:href="#p"/>
  <use x="92.941406" y="581.875" xlink:href="#a"/>
  <use x="98.554688" y="581.875" xlink:href="#o"/>
  <use x="103.132812" y="581.875" xlink:href="#e"/>
  <use x="106.890625" y="581.875" xlink:href="#n"/>
  <use x="110.785156" y="581.875" xlink:href="#f"/>
  <use x="116.582031" y="581.875" xlink:href="#m"/>
  <use x="120.589844" y="581.875" xlink:href="#b"/>
  <use x="123.285156" y="581.875" xlink:href="#e"/>
  <use x="127.042969" y="581.875" xlink:href="#l"/>
  <use x="128.917969" y="581.875" xlink:href="#a"/>
  <use x="132.625" y="581.875" xlink:href="#k"/>
  <use x="135.867188" y="581.875" xlink:href="#c"/>
 </g>
</svg>
