<?xml version="1.0" encoding="UTF-8"?>
<svg width="100%" height="100%" version="1.1" viewBox="80 20 540 520" preserveAspectRatio="none" xmlns="http://www.w3.org/2000/svg" xmlns:xlink="http://www.w3.org/1999/xlink">
 
 <g>
  <path d="m422.8 412.72 6.1602-27.441c3.3594-13.441-4.4805-27.441-17.922-31.922l-26.32-8.9609c-1.1211-0.55859-2.2383-1.1211-2.2383-2.8008-1.1211-6.7188-2.2383-13.441-4.4805-19.602-0.55859-1.1211 0-2.2383 1.1211-3.3594l19.602-19.602c10.078-10.078 10.641-25.199 2.2383-36.398l-17.359-21.273c-8.9609-11.199-24.078-13.441-35.84-6.1602l-23.52 15.121c-1.1211 0.55859-2.2383 0.55859-3.3594 0-5.6016-3.3594-11.762-6.1602-18.48-8.9609-1.1211-0.55859-1.6797-1.6797-1.6797-2.8008l-2.8008-27.441c-1.6797-14-12.879-24.078-26.879-24.078h-28c-14 0-25.762 10.641-26.879 24.078l-2.8008 27.441c0 1.1211-1.1211 2.2383-1.6797 2.8008-6.7188 2.2383-12.879 5.6016-18.48 8.3984-1.1211 0.55859-2.2383 0.55859-3.3594 0l-24.082-14.559c-11.762-7.2812-27.441-5.0391-35.84 6.1602l-17.363 21.84c-8.957 11.199-7.8398 26.879 2.2422 36.402l19.602 19.602c1.1211 1.1211 1.1211 2.2383 1.1211 2.8008-1.6797 6.1602-3.3594 12.879-4.4805 20.16 0 1.1211-1.1211 2.2383-2.2383 2.2383l-26.32 8.9609c-13.441 4.4805-20.719 18.48-17.359 31.922l6.1602 27.441c3.3594 13.441 15.68 22.398 29.68 20.719l26.879-3.3594c1.6797 0 2.8008 0.55859 3.3594 1.1211 3.9219 5.6016 7.8398 11.199 12.32 15.68 0.55859 0.55859 1.1211 1.6797 1.1211 2.8008l-9.5195 26.879c-4.4805 12.879 1.1211 27.441 14 33.602l25.199 12.32c12.32 6.1602 27.441 1.6797 34.719-10.078l14.559-23.52c0.55859-1.1211 1.6797-1.6797 3.3594-1.6797 6.7188 0.55859 13.441 0.55859 20.16 0 1.1211 0 2.2383 0.55859 3.3594 1.6797l14.559 23.52c5.0391 8.3984 14 12.879 22.961 12.879 3.9219 0 7.8398-1.1211 11.762-2.8008l25.199-12.32c12.32-6.1602 18.48-20.719 14-33.602l-9.5195-26.32c-0.55859-1.1211 0-2.2383 1.1211-2.8008 4.4805-5.0391 8.9609-10.078 12.32-15.68 0.55859-0.55859 1.6797-1.6797 2.8008-1.6797l28 3.3594c12.875 1.6758 26.316-7.2852 29.117-20.727zm-22.961-5.5977c-0.55859 1.6797-2.2383 2.8008-3.9219 2.8008l-28-3.3594h-2.8008c-8.9609 0-17.359 4.4805-22.398 12.32-2.8008 4.4805-6.7188 8.9609-10.078 12.879-6.7188 7.2812-8.9609 17.922-5.6016 26.879l9.5195 26.32c0.55859 1.6797 0 3.3594-1.6797 3.9219l-25.199 12.32c-1.6797 0.55859-3.3594 0-4.4805-1.1211l-14.559-23.52c-5.6016-8.9609-15.68-14-26.32-12.879-5.0391 0.55859-10.078 0.55859-14.559 0-10.641-1.1211-20.719 3.9219-26.32 12.879l-14.559 23.52c-1.1211 1.6797-2.8008 2.2383-4.4805 1.1211l-25.199-12.32c-1.6797-0.55859-2.2383-2.2383-1.6797-3.9219l9.5195-26.879c3.3594-8.9609 1.1211-19.602-6.1602-26.879-3.9219-3.9219-7.2812-8.3984-10.078-12.879-5.6016-8.3984-15.68-12.879-26.32-11.762l-26.879 3.3594c-1.6797 0-3.3594-1.1211-3.9219-2.8008l-6.1602-27.441c-0.55859-1.6797 0.55859-3.3594 2.2383-3.9219l26.32-8.9609c9.5195-3.3594 16.801-11.762 17.922-21.84 0.55859-5.6016 1.6797-11.199 3.3594-16.238 2.8008-9.5195 0-20.16-6.7188-26.879l-19.043-19.039c-1.1211-1.1211-1.1211-3.3594 0-4.4805l17.359-21.84c1.1211-1.1211 2.8008-1.6797 4.4805-0.55859l23.52 15.121c8.3984 5.6016 19.039 5.6016 28 0.55859 4.4805-2.8008 9.5195-5.0391 15.121-7.2812 9.5195-3.3594 16.238-12.32 17.359-22.398l2.8008-27.441c0-1.6797 1.6797-2.8008 3.3594-2.8008h28c1.6797 0 3.3594 1.1211 3.3594 2.8008l2.8008 27.441c1.1211 10.078 7.8398 19.039 17.359 22.398 5.6016 2.2383 10.641 4.4805 15.121 7.2812 8.3984 5.0391 19.039 4.4805 28-0.55859l23.52-15.121c1.6797-1.1211 3.3594-0.55859 4.4805 0.55859l17.359 21.84c1.1211 1.1211 1.1211 3.3594 0 4.4805l-20.723 19.598c-7.2812 7.2812-10.078 17.359-6.7188 26.879 1.6797 5.0391 2.8008 10.641 3.3594 16.238 1.6797 10.078 8.3984 18.48 17.922 21.84l26.32 8.9609c1.6797 0.55859 2.8008 2.2383 2.2383 3.9219z"/>
  <path d="m257.04 290.64c-38.641 0-70 31.359-70 70s31.359 70 70 70c38.641 0 70-31.359 70-70-0.55859-38.641-31.918-70-70-70zm0 115.92c-25.199 0-45.922-20.719-45.922-45.922 0-25.199 20.719-45.922 45.922-45.922 25.199 0 45.922 20.719 45.922 45.922s-20.723 45.922-45.922 45.922z"/>
  <path d="m597.52 201.04-26.32-8.9609c-1.1211-0.55859-1.6797-1.1211-2.2383-2.2383-1.1211-7.2812-2.2383-14-4.4805-20.16-0.55859-1.6797 0.55859-2.8008 1.1211-2.8008l19.602-19.602c10.078-10.078 10.641-25.199 2.2383-36.398l-17.359-21.84c-8.9609-10.641-24.078-13.441-35.84-6.1602l-23.52 14.559c-0.55859 0.55859-2.2383 1.1211-3.3594 0-5.6016-3.3594-11.762-6.1602-18.48-8.3984-1.6797-0.55859-1.6797-1.6797-2.2383-2.8008l-2.2461-27.438c-1.6797-14-13.441-24.641-26.879-24.641h-28c-14 0-25.762 10.641-26.879 24.078l-2.8008 27.441c0 0.55859-0.55859 2.2383-1.6797 2.8008-6.7188 2.8008-12.879 5.6016-19.039 8.9609-0.55859 0.55859-1.6797 0.55859-2.8008 0l-24.078-15.121c-11.762-7.2812-26.879-5.0391-35.84 6.1602l-17.359 21.84c-8.3984 11.199-7.2812 26.879 2.2383 36.398l19.602 19.039c0.55859 1.1211 1.1211 2.2383 1.1211 2.8008-1.6797 6.1602-3.3594 12.879-4.4805 19.602-1.125 7.8398 3.3555 13.441 9.5156 14.559 6.1602 1.1211 12.32-3.3594 13.441-10.078 0.55859-5.6016 1.6797-10.641 3.3594-16.238 2.8008-9.5195 0.55859-20.16-6.7188-27.441l-19.602-19.602c-1.6797-1.6797-1.1211-3.3594 0-4.4805l17.359-21.281c1.1211-1.1211 2.8008-1.6797 4.4805-1.1211l23.52 14.559c7.8398 5.6016 19.039 5.6016 28 0.55859 4.4805-2.8008 9.5195-5.0391 14.559-6.7188 9.5195-3.3594 16.238-12.32 17.359-22.398l2.8008-27.441c0-1.6797 1.6797-2.8008 3.3594-2.8008h28c1.6797 0 3.3594 1.1211 3.3594 2.8008l2.8008 27.441c1.1211 10.641 7.8398 19.039 17.359 22.398 5.6016 2.2383 10.078 4.4805 14.559 6.7188 8.9609 5.0391 19.602 5.0391 28-0.55859l22.961-14.559c1.6797-1.1211 3.3594-0.55859 4.4805 0.55859l17.359 21.84c1.1211 1.1211 1.1211 3.3594-0.55859 4.4805l-19.602 19.602c-7.2812 7.2812-10.078 17.359-6.7188 26.879 1.6797 5.0391 2.8008 10.641 3.3594 15.68 1.1211 9.5195 8.3984 18.48 17.922 21.84l26.32 8.9609c1.6797 0.55859 2.8008 2.2383 2.2383 3.9219l-6.1602 27.441c-0.55859 1.6797-1.6797 2.8008-3.9219 2.8008l-28-3.3594c-10.078-1.1211-19.602 3.3594-25.199 11.762-2.8008 4.4805-6.1602 8.3984-10.078 12.879-7.2812 7.8398-8.9609 18.48-5.6016 27.441l9.5195 26.32c0.55859 1.6797 0 3.3594-1.6797 3.9219l-24.074 13.434c-1.6797 0.55859-3.3594 0.55859-3.9219-1.1211l-14.559-23.52c-5.6016-8.9609-15.68-14-26.32-12.879-4.4805 0.55859-10.078 0.55859-15.121 0-6.7188 0-12.32 4.4805-12.879 11.199-0.55859 6.7188 4.4805 12.32 11.199 12.879s12.879 0.55859 19.039 0c1.1211 0 2.8008 0 3.9219 1.6797l14.559 23.52c5.0391 8.3984 14 12.879 22.961 12.879 3.9219 0 8.3984-1.1211 12.32-2.8008l25.199-12.32c12.32-5.6016 18.48-20.16 13.441-33.602l-9.5195-26.32c-0.55859-1.1211 0-2.2383 1.1211-2.8008 4.4805-5.0391 8.9609-10.078 12.32-15.68 0 0 1.6797-1.1211 2.2383-1.6797l28.559 3.3594c14 1.6797 26.879-7.8398 29.68-21.281l6.1602-26.879c2.2383-13.992-5.0391-27.992-18.48-32.473z"/>
  <path d="m444.64 253.68c-6.7188 0-11.762 5.6016-11.762 12.32s5.6016 11.762 11.762 11.762h0.55859c37.52-1.1211 67.199-31.922 67.199-70 0-38.641-31.359-70-70-70-31.359 0-59.359 21.281-67.762 51.52-1.6797 6.1602 2.2383 12.879 8.3984 14.559 6.1602 1.6797 12.879-2.2383 14.559-8.3984 5.6016-20.16 23.52-34.16 44.801-34.16 25.199 0 45.922 20.719 45.922 45.922 0.5625 25.758-18.477 45.918-43.676 46.477z"/>
  <path d="m145.6 206.64c6.7188 0 11.762-5.6016 11.762-11.762l-0.003906-82.32c0-12.32 10.078-21.84 21.84-21.84h62.16l-14 14c-4.4805 4.4805-4.4805 12.32 0 16.801 2.2383 2.2383 5.6016 3.3594 8.3984 3.3594 2.8008 0 6.1602-1.1211 8.3984-3.3594l34.719-34.719c4.4805-4.4805 4.4805-12.32 0-16.801l-34.719-34.719c-4.4805-4.4805-12.32-4.4805-16.801 0s-4.4805 12.32 0 16.801l14 14-62.156-0.003906c-25.199 0-45.922 20.719-45.922 45.922v82.32c0.003906 7.2812 5.6016 12.32 12.324 12.32z"/>
  <path d="m554.4 383.04c-6.7188 0-11.762 5.6016-11.762 11.762v52.641c0 12.32-10.078 21.84-21.84 21.84h-72.238l14-14c4.4805-4.4805 4.4805-12.32 0-16.801-4.4805-4.4805-12.32-4.4805-16.801 0l-34.156 34.719c-4.4805 4.4805-4.4805 12.32 0 16.801l34.719 34.719c2.2383 2.2383 5.6016 3.3594 8.3984 3.3594 2.8008 0 6.1602-1.1211 8.3984-3.3594 4.4805-4.4805 4.4805-12.32 0-16.801l-14-14h71.68c25.199 0 45.922-20.719 45.922-45.922v-52.641c0-7.2773-5.5977-12.316-12.32-12.316z"/>
  <use x="70" y="644" xlink:href="#x"/>
  <use x="90.550781" y="644" xlink:href="#c"/>
  <use x="104.359375" y="644" xlink:href="#a"/>
  <use x="123.347656" y="644" xlink:href="#l"/>
  <use x="142.242188" y="644" xlink:href="#b"/>
  <use x="155.628906" y="644" xlink:href="#a"/>
  <use x="174.617188" y="644" xlink:href="#k"/>
  <use x="204.410156" y="644" xlink:href="#j"/>
  <use x="224.453125" y="644" xlink:href="#i"/>
  <use x="252.453125" y="644" xlink:href="#h"/>
  <use x="274.121094" y="644" xlink:href="#w"/>
  <use x="283.71875" y="644" xlink:href="#g"/>
  <use x="293.316406" y="644" xlink:href="#f"/>
  <use x="309.914062" y="644" xlink:href="#a"/>
  <use x="338.652344" y="644" xlink:href="#v"/>
  <use x="361.894531" y="644" xlink:href="#a"/>
  <use x="380.882812" y="644" xlink:href="#u"/>
  <use x="397.550781" y="644" xlink:href="#g"/>
  <use x="407.148438" y="644" xlink:href="#t"/>
  <use x="427.191406" y="644" xlink:href="#e"/>
  <use x="70" y="672" xlink:href="#s"/>
  <use x="82.183594" y="672" xlink:href="#c"/>
  <use x="95.992188" y="672" xlink:href="#d"/>
  <use x="115.226562" y="672" xlink:href="#r"/>
  <use x="154.152344" y="672" xlink:href="#b"/>
  <use x="167.535156" y="672" xlink:href="#q"/>
  <use x="187.46875" y="672" xlink:href="#a"/>
  <use x="216.207031" y="672" xlink:href="#p"/>
  <use x="239.640625" y="672" xlink:href="#d"/>
  <use x="258.878906" y="672" xlink:href="#o"/>
  <use x="278.8125" y="672" xlink:href="#e"/>
  <use x="308.492188" y="672" xlink:href="#n"/>
  <use x="329.015625" y="672" xlink:href="#c"/>
  <use x="342.820312" y="672" xlink:href="#d"/>
  <use x="362.058594" y="672" xlink:href="#m"/>
  <use x="371.65625" y="672" xlink:href="#a"/>
  <use x="390.648438" y="672" xlink:href="#f"/>
  <use x="407.242188" y="672" xlink:href="#b"/>
 </g>
</svg>
