<?xml version="1.0" encoding="UTF-8"?>
<svg width="100%" height="100%" version="1.1" viewBox="50 20 600 530" xmlns="http://www.w3.org/2000/svg" xmlns:xlink="http://www.w3.org/1999/xlink">
 <g>
  <path d="m584.16 141.13-25.957 25.988-95.332-95.301 25.992-25.996c3.9414-3.8945 10.277-3.8945 14.219 0l81.078 81.09c1.8906 1.8828 2.9492 4.4414 2.9492 7.1094 0 2.668-1.0586 5.2266-2.9492 7.1094zm-444.92 270.09 79.484 79.484-100.81 21.359zm51.727 3.8359 283.61-283.61-35.684-35.672-283.58 283.58 35.664 35.684zm59.613 59.613 283.61-283.61-35.676-35.684-283.61 283.61 35.734 35.688zm276.45-452.8c-8.2461-8.2227-19.418-12.84-31.062-12.84s-22.812 4.6172-31.059 12.84l-348.92 348.93c-2.3164 2.3203-3.9141 5.2617-4.5938 8.4688l-31.992 151.23c-1.0703 4.9961 0.17578 10.211 3.3906 14.188 3.2148 3.9766 8.0547 6.2852 13.168 6.2852 1.1758-0.003906 2.3516-0.12891 3.5039-0.36719l151.27-32.012c3.207-0.67969 6.1484-2.2773 8.4688-4.5938l348.93-348.93c8.2266-8.2383 12.848-19.406 12.848-31.051s-4.6211-22.812-12.848-31.055z" fill-rule="evenodd"/>
  <use x="70" y="650.324219" xlink:href="#u"/>
  <use x="92.09375" y="650.324219" xlink:href="#d"/>
  <use x="106.945312" y="650.324219" xlink:href="#b"/>
  <use x="127.363281" y="650.324219" xlink:href="#f"/>
  <use x="147.679688" y="650.324219" xlink:href="#c"/>
  <use x="162.070312" y="650.324219" xlink:href="#b"/>
  <use x="182.492188" y="650.324219" xlink:href="#k"/>
  <use x="214.523437" y="650.324219" xlink:href="#j"/>
  <use x="236.078125" y="650.324219" xlink:href="#i"/>
  <use x="266.183594" y="650.324219" xlink:href="#h"/>
  <use x="276.503906" y="650.324219" xlink:href="#f"/>
  <use x="296.820312" y="650.324219" xlink:href="#t"/>
  <use x="316.84375" y="650.324219" xlink:href="#a"/>
  <use x="337.527344" y="650.324219" xlink:href="#e"/>
  <use x="358.960937" y="650.324219" xlink:href="#s"/>
  <use x="369.28125" y="650.324219" xlink:href="#g"/>
  <use x="387.128906" y="650.324219" xlink:href="#a"/>
  <use x="407.8125" y="650.324219" xlink:href="#e"/>
  <use x="70" y="680.429688" xlink:href="#r"/>
  <use x="83.097656" y="680.429688" xlink:href="#d"/>
  <use x="97.945312" y="680.429688" xlink:href="#a"/>
  <use x="118.628906" y="680.429688" xlink:href="#q"/>
  <use x="160.484375" y="680.429688" xlink:href="#c"/>
  <use x="174.875" y="680.429688" xlink:href="#p"/>
  <use x="196.308594" y="680.429688" xlink:href="#b"/>
  <use x="227.210937" y="680.429688" xlink:href="#o"/>
  <use x="252.410156" y="680.429688" xlink:href="#a"/>
  <use x="273.09375" y="680.429688" xlink:href="#n"/>
  <use x="294.527344" y="680.429688" xlink:href="#e"/>
  <use x="326.441406" y="680.429688" xlink:href="#m"/>
  <use x="348.507812" y="680.429688" xlink:href="#d"/>
  <use x="363.355469" y="680.429688" xlink:href="#a"/>
  <use x="384.042969" y="680.429688" xlink:href="#l"/>
  <use x="394.363281" y="680.429688" xlink:href="#b"/>
  <use x="414.78125" y="680.429688" xlink:href="#g"/>
  <use x="432.628906" y="680.429688" xlink:href="#c"/>
 </g>
</svg>