<svg width="16" height="16" viewBox="0 0 16 16" fill="none" xmlns="http://www.w3.org/2000/svg">
<path d="M13.5173 13.0905H11.4005C9.94197 13.0905 8.58027 12.3617 7.77014 11.1482C7.54709 10.8142 7.63719 10.3625 7.97128 10.1394C8.30537 9.91625 8.75685 10.0064 8.97989 10.3405C9.52023 11.1499 10.4282 11.636 11.4006 11.636H13.5166L11.8493 9.96891C11.5654 9.68473 11.5654 9.22428 11.8493 8.94033C12.1335 8.65615 12.594 8.65615 12.8779 8.94033L15.7871 11.8493C16.071 12.1334 16.071 12.5939 15.7871 12.8779L12.8779 15.7871C12.594 16.071 12.1335 16.071 11.8493 15.7871C11.5654 15.5031 11.5654 15.0424 11.8493 14.7585L13.5173 13.0905ZM13.5171 4.36373H11.4008C10.4285 4.36373 9.5207 4.84978 8.98061 5.65868L5.32073 11.1486C4.51059 12.362 3.1489 13.091 1.69034 13.091H0.727538C0.325756 13.091 0.000187384 12.7654 0.000187384 12.3637C0.000187384 11.9621 0.325756 11.6365 0.727538 11.6365H1.69034C2.66267 11.6365 3.57043 11.1505 4.11051 10.3413L7.7704 4.85147C8.58053 3.63805 9.94222 2.90926 11.4008 2.90926H13.5171L11.8493 1.24171C11.5654 0.957536 11.5654 0.497082 11.8493 0.213131C12.1335 -0.0710437 12.5939 -0.0710437 12.8779 0.213131L15.787 3.12208C16.0709 3.40625 16.0709 3.86671 15.787 4.15066L12.8779 7.05986C12.5939 7.34379 12.1335 7.34379 11.8493 7.05986C11.5654 6.77593 11.5654 6.31523 11.8493 6.03128L13.5171 4.36373ZM0.72735 4.36373C0.325568 4.36373 0 4.03816 0 3.63637C0 3.23482 0.325568 2.90926 0.72735 2.90926H1.69015C3.14872 2.90926 4.51041 3.63805 5.32054 4.85147C5.54335 5.18556 5.4535 5.63724 5.11941 5.86035C4.78532 6.08316 4.33365 5.9933 4.11079 5.65921C3.57021 4.84981 2.66245 4.36376 1.69011 4.36376L0.72735 4.36373Z" fill="#D9D9D9"/>
</svg>
