<svg width="16" height="18" viewBox="0 0 16 18" fill="none" xmlns="http://www.w3.org/2000/svg">
<path d="M1.84004 7.72557C1.783 7.87885 1.78994 8.04846 1.85923 8.19658C1.92839 8.34469 2.05417 8.45877 2.20828 8.51335C2.36251 8.5678 2.53199 8.55814 2.67902 8.48654C2.8259 8.4148 2.93793 8.28724 2.98993 8.13219C3.48897 6.71974 4.49059 5.54045 5.80356 4.81912C7.11652 4.09792 8.64903 3.88499 10.1088 4.22139C11.5685 4.55763 12.8535 5.41932 13.7188 6.64244C14.5839 7.86543 14.9686 9.36406 14.7995 10.8525C14.6306 12.341 13.9196 13.7152 12.8022 14.7131C11.6848 15.7109 10.2394 16.2626 8.74131 16.2629C7.70784 16.2666 6.69095 16.0028 5.78965 15.4969C5.60248 15.4082 5.38318 15.4204 5.20702 15.5295C5.03087 15.6385 4.92224 15.8295 4.91829 16.0366C4.91447 16.2436 5.01603 16.4385 5.18796 16.5541C6.27221 17.1653 7.49655 17.4854 8.74114 17.4827C10.6189 17.4676 12.4191 16.7311 13.7688 15.4258C15.1188 14.1205 15.9153 12.3462 15.9935 10.4699C16.0719 8.59368 15.426 6.75924 14.1897 5.34577C12.9532 3.93248 11.2209 3.04861 9.35093 2.8768V1.21971H10.3674C10.5852 1.21971 10.7865 1.10346 10.8954 0.914781C11.0045 0.726106 11.0045 0.493599 10.8954 0.304927C10.7865 0.116252 10.5852 0 10.3674 0H7.11475C6.89694 0 6.69562 0.116252 6.58672 0.304927C6.47768 0.493602 6.47768 0.72611 6.58672 0.914781C6.69562 1.10346 6.89695 1.21971 7.11475 1.21971H8.13122V2.89395C6.72855 3.00775 5.38879 3.52436 4.27276 4.38144C3.15666 5.23865 2.31195 6.39981 1.84 7.72556L1.84004 7.72557Z" fill="#8C66DD"/>
<path d="M8.74169 6.50479C8.57997 6.50479 8.42478 6.56905 8.31044 6.68339C8.19609 6.79788 8.13184 6.95293 8.13184 7.11465V9.55406C8.1317 9.66746 8.16328 9.77854 8.22291 9.87491C8.28253 9.97129 8.36788 10.0492 8.4693 10.0997L10.0956 10.9128V10.9129C10.18 10.9554 10.2734 10.9774 10.368 10.9771C10.5526 10.9773 10.7274 10.8938 10.8434 10.7502C10.9594 10.6065 11.0039 10.4179 10.9647 10.2374C10.9253 10.057 10.8064 9.90418 10.6412 9.82167L9.35239 9.17767V7.11465C9.35239 6.9528 9.288 6.79761 9.17352 6.68312C9.0589 6.56877 8.90358 6.50466 8.74171 6.50479H8.74169Z" fill="#8C66DD"/>
<path d="M0 9.55399C0 9.71585 0.0642542 9.8709 0.1786 9.98525C0.292946 10.0996 0.447999 10.1638 0.609854 10.1638H5.48869C5.70649 10.1638 5.90781 10.0476 6.01672 9.85892C6.12576 9.67024 6.12576 9.43774 6.01672 9.24906C5.90781 9.06039 5.70648 8.94414 5.48869 8.94414H0.609854C0.447999 8.94414 0.292946 9.00839 0.1786 9.12274C0.0642542 9.23722 0 9.39227 0 9.55399Z" fill="#8C66DD"/>
<path d="M6.09899 11.9936C6.09899 11.8318 6.03473 11.6768 5.92039 11.5623C5.8059 11.448 5.65085 11.3837 5.48913 11.3837H1.42332C1.20538 11.3837 1.00406 11.5 0.895153 11.6886C0.786251 11.8773 0.786251 12.1098 0.895153 12.2985C1.00406 12.4872 1.20539 12.6034 1.42332 12.6034H5.48913C5.65085 12.6034 5.8059 12.5392 5.92039 12.4248C6.03473 12.3105 6.09899 12.1554 6.09899 11.9936Z" fill="#8C66DD"/>
<path d="M3.0493 15.0427H5.48872C5.70652 15.0427 5.90784 14.9265 6.01674 14.7378C6.12578 14.5491 6.12578 14.3166 6.01674 14.128C5.90784 13.9393 5.70651 13.823 5.48872 13.823H3.0493C2.83136 13.823 2.63003 13.9393 2.52113 14.128C2.41223 14.3166 2.41223 14.5491 2.52113 14.7378C2.63003 14.9265 2.83136 15.0427 3.0493 15.0427Z" fill="#8C66DD"/>
</svg>
